<?xml version="1.0" encoding="utf-8"?>
<!-- Generator: Adobe Illustrator 24.2.3, SVG Export Plug-In . SVG Version: 6.00 Build 0)  -->
<svg version="1.1" id="Layer_1" xmlns="http://www.w3.org/2000/svg" xmlns:xlink="http://www.w3.org/1999/xlink" x="0px" y="0px"
	 viewBox="0 0 500 200" style="enable-background:new 0 0 500 200;" xml:space="preserve">
<style type="text/css">
	.st0{fill:none;}
	.st1{fill:#27AAE1;}
</style>
<g>
	<g>
		<path d="M121,125.6c-7.9,0-15-2.1-21.7-5.9l2.6-4.9c6.2,3.2,12.8,5.3,18.7,5.3c7.4,0,17.9-2.4,17.9-9.5c0-5.5-7.2-7-13.6-7.9
			c-1.9-0.2-3.8-0.4-5.4-0.7c-9.8-1.3-20.2-4.3-20.2-13.4c0-11.1,13.5-14.2,23-14.2c7.9,0,14.8,1.9,21.1,6.5l-3,4.3
			c-5.3-3.8-11.4-5.5-18.1-5.5c-9.9,0-16.4,3.5-16.4,8.6c0,4.5,6.9,6,11.7,7.1c5,1.1,10.9,1.6,14.9,2.7c6.4,1.6,12.7,4.7,12.7,12.5
			C145.2,122.7,129.7,125.6,121,125.6z"/>
		<path d="M178.9,125h-6.9V80.7h-22.6l-0.1-5.3h51.9v5.3h-22.4V125z"/>
		<path d="M237.6,113.2h-27.8l-5.5,11.8h-6.9l23.8-49.8h5.5l23.4,49.8h-7L237.6,113.2z M223.7,83.6L212.3,108h22.8L223.7,83.6
			L223.7,83.6z"/>
		<path d="M276.5,105.1H264V125h-6.6l-0.1-49.7h25.2c8.9,0,17.9,5.6,17.9,14.7c0,7.9-7.9,14.5-15.8,14.8c-0.1,0.1-0.6,0-0.6,0.1
			l0.7,0.5l16.2,18.9l0.3,0.7h-7.4C293.8,125,278.4,107.2,276.5,105.1z M282.8,80.7H264v19h18.9c5.7,0,11.2-4.3,11.2-9.5
			C294.1,84.4,288.6,80.7,282.8,80.7z"/>
		<path d="M334.8,125h-6.9V80.7h-22.6l-0.1-5.3h51.9v5.3h-22.4V125z"/>
		<path d="M416.3,125.5c-15.9,0-25.2-9.5-25.2-24.9l0.1-25.3h6.7l-0.1,25.4c0,13.4,7.1,19.1,18.4,19.1c10.6,0,17.7-6.2,17.7-19.6
			V75.3h6.7V100C440.7,116.1,431.6,125.5,416.3,125.5z"/>
		<path d="M472,125.6c-7.9,0-15-2.1-21.7-5.9l2.6-4.9c6.2,3.2,12.8,5.3,18.7,5.3c7.4,0,17.9-2.4,17.9-9.5c0-5.5-7.2-7-13.6-7.9
			c-1.9-0.2-3.8-0.4-5.4-0.7c-9.8-1.3-20.2-4.3-20.2-13.4c0-11.1,13.5-14.2,23-14.2c7.9,0,14.8,1.9,21.1,6.5l-3,4.3
			c-5.3-3.8-11.4-5.5-18.1-5.5c-9.9,0-16.4,3.5-16.4,8.6c0,4.5,6.9,6,11.7,7.1c5,1.1,10.9,1.6,14.9,2.7c6.4,1.6,12.7,4.7,12.7,12.5
			C496.3,122.7,480.8,125.6,472,125.6z"/>
	</g>
	<g>
		<polygon class="st0" points="53.2,68.4 33.4,68.4 33.4,97.5 61.9,97.5 61.9,77 53.2,77 		"/>
		<polygon points="18.7,68.4 3.7,68.4 3.7,126.7 61.9,126.7 61.9,111.1 18.7,111.1 		"/>
		<rect x="61.9" y="97.5" class="st1" width="15.3" height="13.7"/>
		<rect x="18.7" y="52.6" class="st1" width="14.6" height="15.8"/>
		<polygon class="st1" points="33.4,97.5 33.4,68.4 18.7,68.4 18.7,111.1 61.9,111.1 61.9,97.5 		"/>
		<rect x="33.4" y="46.9" width="19.8" height="5.7"/>
		<rect x="77.2" y="77" width="6.7" height="20.4"/>
		<rect x="61.9" y="77" width="15.3" height="20.4"/>
		<rect x="33.4" y="52.6" width="19.8" height="15.8"/>
		<rect x="53.2" y="68.4" class="st1" width="8.8" height="8.6"/>
		<polygon class="st1" points="89.9,40.4 53.2,40.4 53.2,46.9 83.9,46.9 83.9,77 89.9,77 		"/>
		<polygon class="st1" points="53.2,46.9 53.2,52.6 77.2,52.6 77.2,77 83.9,77 83.9,46.9 		"/>
	</g>
	<g>
		<path d="M149.8,158.7c-1.3,0.5-2.8,0.9-4.5,0.9c-4,0-8.5-2.7-8.5-7.7c0-4.8,4.2-7.6,8.4-7.6c1.1,0,2.3,0.1,3.5,0.4
			c1.3,0.4,2.6,1.1,3.3,1.7l-1,1.2c-0.7-0.4-1.8-1-2.6-1.3c-0.8-0.3-1.9-0.4-3.1-0.4c-3.4,0-6.5,2.3-6.5,5.9c0,3.8,3.4,6,6.6,6
			c2,0,3.9-0.6,5-1.4V153h-5.7l0.3-1.5h7.3v6C151.6,157.8,150.8,158.3,149.8,158.7z"/>
		<path d="M165.3,153.4h-3.7v5.9h-2l0-14.8h7.5c2.6,0,5.3,1.7,5.3,4.4c0,2.4-2.4,4.3-4.7,4.4c0,0-0.2,0-0.2,0l0.2,0.1l4.8,5.6
			l0.1,0.2h-2.2C170.4,159.4,165.9,154.1,165.3,153.4z M167.2,146.2h-5.6v5.7h5.6c1.7,0,3.3-1.3,3.3-2.8
			C170.5,147.3,168.9,146.2,167.2,146.2z"/>
		<path d="M187.4,159.6c-4.6,0-8.9-3.1-8.9-7.7c0-4.6,4.3-7.7,8.9-7.7c4.7,0,8.9,3.2,8.9,7.7C196.3,156.6,192,159.6,187.4,159.6z
			 M187.4,145.9c-3.9,0-7,2.7-7,6.1c0,3.3,3,6,7,6c4,0,7-2.7,7-6C194.3,148.6,191.3,145.9,187.4,145.9z"/>
		<path d="M217.7,159.4l-4.7-12.1h0l-4.5,12.1H207l-6.1-14.8h2.2l4.7,11.7l0.1,0l4.2-11.5h1.7l4.5,11.7l0,0l4.6-11.7h2l-6,14.8
			H217.7z"/>
		<path d="M231.5,144.6h2v14.8h-2V144.6z"/>
		<path d="M243.5,147.7v11.6h-2v-14.8h1.4l11.7,11.4v-11.4h1.9v14.8h-1.1L243.5,147.7z"/>
		<path d="M276.5,158.7c-1.3,0.5-2.8,0.9-4.5,0.9c-4,0-8.5-2.7-8.5-7.7c0-4.8,4.2-7.6,8.4-7.6c1.1,0,2.3,0.1,3.5,0.4
			c1.3,0.4,2.6,1.1,3.3,1.7l-1,1.2c-0.7-0.4-1.8-1-2.6-1.3c-0.8-0.3-1.9-0.4-3.1-0.4c-3.4,0-6.5,2.3-6.5,5.9c0,3.8,3.4,6,6.6,6
			c2,0,3.9-0.6,5-1.4V153h-5.7l0.3-1.5h7.3v6C278.3,157.8,277.5,158.3,276.5,158.7z"/>
		<path d="M306.3,159.4h-2v-13.2h-6.7l0-1.6h15.5v1.6h-6.7V159.4z"/>
		<path d="M326.3,159.6c-4.6,0-8.9-3.1-8.9-7.7c0-4.6,4.3-7.7,8.9-7.7c4.7,0,8.9,3.2,8.9,7.7C335.2,156.6,330.9,159.6,326.3,159.6z
			 M326.3,145.9c-3.9,0-7,2.7-7,6.1c0,3.3,3,6,7,6c4,0,7-2.7,7-6C333.2,148.6,330.3,145.9,326.3,145.9z"/>
		<path d="M354.4,158.7c-1.3,0.5-2.8,0.9-4.5,0.9c-4,0-8.5-2.7-8.5-7.7c0-4.8,4.2-7.6,8.4-7.6c1.1,0,2.3,0.1,3.5,0.4
			c1.3,0.4,2.6,1.1,3.3,1.7l-1,1.2c-0.7-0.4-1.8-1-2.6-1.3c-0.8-0.3-1.9-0.4-3.1-0.4c-3.4,0-6.5,2.3-6.5,5.9c0,3.8,3.4,6,6.6,6
			c2,0,3.9-0.6,5-1.4V153h-5.7l0.3-1.5h7.3v6C356.3,157.8,355.4,158.3,354.4,158.7z"/>
		<path d="M364.3,144.6h12.3v1.6h-10.3v5.1h8.5v1.5h-8.5v5h10.6v1.6h-12.6L364.3,144.6z"/>
		<path d="M391.8,159.4h-2v-13.2H383l0-1.6h15.5v1.6h-6.7V159.4z"/>
		<path d="M416.5,152.9H407v6.5h-2v-14.8h2v6.6h9.5v-6.6h2v14.8h-2V152.9z"/>
		<path d="M426.1,144.6h12.3v1.6h-10.3v5.1h8.5v1.5h-8.5v5h10.6v1.6h-12.6L426.1,144.6z"/>
		<path d="M451.4,153.4h-3.7v5.9h-2l0-14.8h7.5c2.6,0,5.3,1.7,5.3,4.4c0,2.4-2.4,4.3-4.7,4.4c0,0-0.2,0-0.2,0l0.2,0.1l4.8,5.6
			l0.1,0.2h-2.2C456.5,159.4,451.9,154.1,451.4,153.4z M453.3,146.2h-5.6v5.7h5.6c1.7,0,3.3-1.3,3.3-2.8
			C456.6,147.3,455,146.2,453.3,146.2z"/>
	</g>
</g>
</svg>
